# Blender 3.3.0
# www.blender.org
mtllib newUSProbe_marker.mtl
o Telemed_ARMarkerHolder_4x4_v1
v 5.000000 3.000201 -19.999687
v 5.000000 3.000202 -21.999687
v 5.000000 0.000202 -21.999687
v 5.000000 0.000205 -41.999687
v 5.000000 3.000205 -41.999687
v -5.000000 3.000202 -21.999687
v -5.000000 3.000201 -19.999687
v -5.000000 3.000205 -41.999687
v -5.000000 0.000202 -21.999687
v -5.000000 0.000205 -41.999687
v -1.953240 3.000204 -36.569786
v -2.000000 3.000204 -36.999687
v -1.953240 3.000204 -37.429588
v -1.815150 3.000205 -37.839489
v -1.592190 3.000205 -38.210087
v -1.294770 3.000205 -38.523987
v -0.936817 3.000205 -38.766685
v -0.535057 3.000205 -38.926788
v -0.108278 3.000205 -38.996788
v 0.323564 3.000205 -38.973389
v 0.740276 3.000205 -38.857586
v 1.122370 3.000205 -38.655087
v 1.451990 3.000205 -38.375088
v 1.713710 3.000205 -38.030788
v 1.895310 3.000204 -37.638287
v 1.988280 3.000204 -37.215889
v 1.988280 3.000204 -36.783485
v 1.895310 3.000204 -36.361088
v 1.895310 3.000203 -30.638287
v 1.988280 3.000203 -30.215887
v 1.988280 3.000203 -29.783487
v 1.895310 3.000203 -29.361088
v 1.713710 3.000204 -35.968586
v 1.713710 3.000203 -31.030788
v 1.451990 3.000204 -35.624287
v 1.451990 3.000203 -31.375088
v 1.122370 3.000204 -35.344288
v 1.122370 3.000203 -31.655087
v 0.740276 3.000204 -35.141788
v 0.740276 3.000203 -31.857586
v 0.323564 3.000204 -35.025986
v 0.323564 3.000204 -31.973389
v -0.108278 3.000204 -35.002586
v -0.108278 3.000204 -31.996788
v -0.535057 3.000204 -31.926788
v -0.535057 3.000204 -35.072586
v -0.936817 3.000203 -31.766685
v -0.936817 3.000204 -35.232689
v -1.294770 3.000203 -31.523987
v -1.294770 3.000204 -35.475388
v -1.592190 3.000203 -31.210087
v -1.592190 3.000204 -35.789288
v -1.815150 3.000203 -30.839487
v -1.815150 3.000204 -36.159885
v -1.953240 3.000203 -30.429586
v -2.000000 3.000203 -29.999687
v -1.953240 3.000203 -29.569788
v -1.953240 3.000202 -23.429586
v -1.815150 3.000202 -23.839487
v 1.713710 3.000203 -28.968588
v 1.713710 3.000202 -24.030787
v 1.895310 3.000202 -23.638287
v 1.988280 3.000202 -23.215887
v 1.988280 3.000202 -22.783487
v 1.451990 3.000202 -24.375088
v 1.451990 3.000203 -28.624287
v 1.122370 3.000203 -28.344288
v 1.122370 3.000202 -24.655087
v 0.740276 3.000203 -28.141687
v 0.740276 3.000202 -24.857687
v 0.323564 3.000203 -28.026087
v 0.323564 3.000202 -24.973288
v -0.108278 3.000203 -28.002586
v -0.108278 3.000202 -24.996788
v -0.535057 3.000202 -24.926786
v -0.535057 3.000203 -28.072588
v -0.936817 3.000202 -24.766687
v -0.936817 3.000203 -28.232687
v -1.294770 3.000202 -24.523987
v -1.294770 3.000203 -28.475388
v -1.592190 3.000203 -28.789288
v -1.592190 3.000202 -24.210087
v -1.815150 3.000203 -29.159887
v -1.953240 3.000202 -22.569788
v -2.000000 3.000202 -22.999687
v 1.895310 3.000202 -22.361088
v 1.713710 3.000202 -21.968588
v 1.451990 3.000202 -21.624287
v 1.122370 3.000202 -21.344288
v 0.740276 3.000202 -21.141687
v 0.323564 3.000202 -21.026087
v -0.108278 3.000202 -21.002586
v -0.535057 3.000202 -21.072588
v -0.936817 3.000202 -21.232687
v -1.294770 3.000202 -21.475388
v -1.592190 3.000202 -21.789288
v -1.815150 3.000202 -22.159887
v -5.000000 0.000201 -19.999687
v 5.000000 0.000201 -19.999687
v -1.953240 0.000202 -22.569788
v -2.000000 0.000202 -22.999687
v -1.953240 0.000202 -23.429586
v -1.815150 0.000202 -23.839487
v -1.592190 0.000202 -24.210087
v -1.294770 0.000202 -24.523987
v -0.936817 0.000202 -24.766687
v -0.535057 0.000202 -24.926786
v -0.108278 0.000202 -24.996788
v 0.323564 0.000202 -24.973288
v 0.740276 0.000202 -24.857687
v 1.122370 0.000202 -24.655087
v 1.451990 0.000202 -24.375088
v 1.713710 0.000202 -24.030787
v 1.895310 0.000202 -23.638287
v 1.988280 0.000202 -23.215887
v 1.988280 0.000202 -22.783487
v 1.895310 0.000202 -22.361088
v 1.713710 0.000202 -21.968588
v 1.451990 0.000202 -21.624287
v 1.122370 0.000202 -21.344288
v 0.740276 0.000202 -21.141687
v 0.323564 0.000202 -21.026087
v -0.108278 0.000202 -21.002586
v -0.535057 0.000202 -21.072588
v -0.936817 0.000202 -21.232687
v -1.294770 0.000202 -21.475388
v -1.592190 0.000202 -21.789288
v -1.815150 0.000202 -22.159887
v -1.953240 0.000204 -36.569786
v -2.000000 0.000204 -36.999687
v -1.953240 0.000204 -37.429588
v -1.815150 0.000204 -37.839489
v -1.592190 0.000204 -38.210087
v -1.294770 0.000204 -38.523987
v -0.936817 0.000205 -38.766685
v -0.535057 0.000205 -38.926788
v -0.108278 0.000205 -38.996788
v 0.323564 0.000205 -38.973389
v 0.740276 0.000205 -38.857586
v 1.122370 0.000204 -38.655087
v 1.451990 0.000204 -38.375088
v 1.713710 0.000204 -38.030788
v 1.895310 0.000204 -37.638287
v 1.988280 0.000204 -37.215889
v 1.988280 0.000204 -36.783485
v 1.895310 0.000204 -36.361088
v 1.713710 0.000204 -35.968586
v 1.451990 0.000204 -35.624287
v 1.122370 0.000204 -35.344288
v 0.740276 0.000204 -35.141788
v 0.323564 0.000204 -35.025986
v -0.108278 0.000204 -35.002586
v -0.535057 0.000204 -35.072586
v -0.936817 0.000204 -35.232689
v -1.294770 0.000204 -35.475388
v -1.592190 0.000204 -35.789288
v -1.815150 0.000204 -36.159885
v -1.953240 0.000203 -29.569788
v -2.000000 0.000203 -29.999687
v -1.953240 0.000203 -30.429586
v -1.815150 0.000203 -30.839487
v -1.592190 0.000203 -31.210087
v -1.294770 0.000203 -31.523987
v -0.936817 0.000203 -31.766685
v -0.535057 0.000203 -31.926788
v -0.108278 0.000203 -31.996788
v 0.323564 0.000203 -31.973389
v 0.740276 0.000203 -31.857586
v 1.122370 0.000203 -31.655087
v 1.451990 0.000203 -31.375088
v 1.713710 0.000203 -31.030788
v 1.895310 0.000203 -30.638287
v 1.988280 0.000203 -30.215887
v 1.988280 0.000203 -29.783487
v 1.895310 0.000203 -29.361088
v 1.713710 0.000203 -28.968588
v 1.451990 0.000203 -28.624287
v 1.122370 0.000203 -28.344288
v 0.740276 0.000203 -28.141687
v 0.323564 0.000203 -28.026087
v -0.108278 0.000203 -28.002586
v -0.535057 0.000203 -28.072588
v -0.936817 0.000203 -28.232687
v -1.294770 0.000203 -28.475388
v -1.592190 0.000203 -28.789288
v -1.815150 0.000203 -29.159887
vn 1.0000 -0.0000 -0.0000
vn -1.0000 -0.0000 -0.0000
vn -0.0000 1.0000 -0.0000
vn 0.9941 -0.0000 -0.1081
vn 0.9941 -0.0000 0.1081
vn 0.9477 -0.0000 0.3193
vn 0.8569 -0.0000 0.5155
vn 0.7259 -0.0000 0.6878
vn 0.5612 -0.0000 0.8277
vn 0.3702 -0.0000 0.9290
vn 0.1619 -0.0000 0.9868
vn -0.0543 -0.0000 0.9985
vn -0.2673 -0.0000 0.9636
vn -0.4685 -0.0000 0.8835
vn -0.4684 -0.0000 0.8835
vn -0.6474 -0.0000 0.7621
vn -0.7961 -0.0000 0.6052
vn -0.9076 -0.0000 0.4199
vn -0.9766 -0.0000 0.2150
vn -0.9766 -0.0000 -0.2150
vn -0.9076 -0.0000 -0.4199
vn -0.7961 -0.0000 -0.6052
vn -0.6474 -0.0000 -0.7621
vn -0.4684 -0.0000 -0.8835
vn -0.4685 -0.0000 -0.8835
vn -0.2673 -0.0000 -0.9636
vn -0.0543 -0.0000 -0.9985
vn 0.1619 -0.0000 -0.9868
vn 0.3702 -0.0000 -0.9290
vn 0.5612 -0.0000 -0.8277
vn 0.7259 -0.0000 -0.6878
vn 0.8569 -0.0000 -0.5155
vn 0.9477 -0.0000 -0.3193
vn -0.0541 -0.0000 0.9985
vn -0.2677 -0.0000 0.9635
vn -0.2678 -0.0000 0.9635
vn -0.4683 -0.0000 0.8836
vn -0.4683 -0.0000 -0.8836
vn -0.2678 -0.0000 -0.9635
vn -0.2677 -0.0000 -0.9635
vn -0.0541 -0.0000 -0.9985
vn -0.0000 -0.0000 -1.0000
vn -0.0000 -1.0000 -0.0000
vn -0.0000 -0.0000 1.0000
s 0
usemtl mtl1
f 3//1 4//1 2//1
f 2//1 4//1 5//1
f 6//2 8//2 9//2
f 9//2 8//2 10//2
f 11//3 12//3 8//3
f 8//3 12//3 13//3
f 8//3 13//3 14//3
f 14//3 15//3 8//3
f 8//3 15//3 16//3
f 8//3 16//3 17//3
f 17//3 18//3 8//3
f 8//3 18//3 19//3
f 8//3 19//3 5//3
f 5//3 19//3 20//3
f 5//3 20//3 21//3
f 21//3 22//3 5//3
f 5//3 22//3 23//3
f 5//3 23//3 24//3
f 24//3 25//3 5//3
f 5//3 25//3 26//3
f 5//3 26//3 27//3
f 28//3 29//3 27//3
f 27//3 29//3 30//3
f 27//3 30//3 5//3
f 5//3 30//3 2//3
f 2//3 30//3 31//3
f 2//3 31//3 32//3
f 28//3 33//3 29//3
f 29//3 33//3 34//3
f 34//3 33//3 35//3
f 34//3 35//3 36//3
f 36//3 35//3 37//3
f 36//3 37//3 38//3
f 38//3 37//3 39//3
f 38//3 39//3 40//3
f 40//3 39//3 41//3
f 40//3 41//3 42//3
f 42//3 41//3 43//3
f 42//3 43//3 44//3
f 44//3 43//3 45//3
f 45//3 43//3 46//3
f 45//3 46//3 47//3
f 47//3 46//3 48//3
f 47//3 48//3 49//3
f 49//3 48//3 50//3
f 49//3 50//3 51//3
f 51//3 50//3 52//3
f 51//3 52//3 53//3
f 53//3 52//3 54//3
f 53//3 54//3 11//3
f 55//3 8//3 56//3
f 56//3 8//3 6//3
f 56//3 6//3 57//3
f 57//3 6//3 58//3
f 57//3 58//3 59//3
f 8//3 55//3 11//3
f 11//3 55//3 53//3
f 60//3 61//3 32//3
f 32//3 61//3 62//3
f 32//3 62//3 2//3
f 2//3 62//3 63//3
f 2//3 63//3 64//3
f 61//3 60//3 65//3
f 65//3 60//3 66//3
f 65//3 66//3 67//3
f 65//3 67//3 68//3
f 68//3 67//3 69//3
f 68//3 69//3 70//3
f 70//3 69//3 71//3
f 70//3 71//3 72//3
f 72//3 71//3 73//3
f 72//3 73//3 74//3
f 74//3 73//3 75//3
f 75//3 73//3 76//3
f 75//3 76//3 77//3
f 77//3 76//3 78//3
f 77//3 78//3 79//3
f 79//3 78//3 80//3
f 79//3 80//3 81//3
f 79//3 81//3 82//3
f 82//3 81//3 83//3
f 82//3 83//3 59//3
f 59//3 83//3 57//3
f 84//3 85//3 6//3
f 6//3 85//3 58//3
f 2//3 64//3 1//3
f 1//3 64//3 86//3
f 1//3 86//3 87//3
f 87//3 88//3 1//3
f 1//3 88//3 89//3
f 1//3 89//3 90//3
f 90//3 91//3 1//3
f 1//3 91//3 92//3
f 1//3 92//3 7//3
f 7//3 92//3 93//3
f 7//3 93//3 94//3
f 94//3 95//3 7//3
f 7//3 95//3 96//3
f 7//3 96//3 97//3
f 97//3 84//3 7//3
f 7//3 84//3 6//3
f 84//4 100//4 85//4
f 85//4 100//4 101//4
f 85//5 101//5 58//5
f 58//5 101//5 102//5
f 58//6 102//6 59//6
f 59//6 102//6 103//6
f 59//7 103//7 82//7
f 82//7 103//7 104//7
f 82//8 104//8 79//8
f 79//8 104//8 105//8
f 79//9 105//9 77//9
f 77//9 105//9 106//9
f 77//10 106//10 75//10
f 75//10 106//10 107//10
f 75//11 107//11 74//11
f 74//11 107//11 108//11
f 74//12 108//12 72//12
f 72//12 108//12 109//12
f 72//13 109//13 70//13
f 70//13 109//13 110//13
f 70//14 110//14 68//14
f 68//15 110//15 111//15
f 68//16 111//16 65//16
f 65//16 111//16 112//16
f 65//17 112//17 61//17
f 61//17 112//17 113//17
f 61//18 113//18 62//18
f 62//18 113//18 114//18
f 62//19 114//19 63//19
f 63//19 114//19 115//19
f 63//2 115//2 64//2
f 64//2 115//2 116//2
f 64//20 116//20 86//20
f 86//20 116//20 117//20
f 86//21 117//21 87//21
f 87//21 117//21 118//21
f 87//22 118//22 88//22
f 88//22 118//22 119//22
f 88//23 119//23 89//23
f 89//23 119//23 120//23
f 89//24 120//24 90//24
f 90//25 120//25 121//25
f 90//26 121//26 91//26
f 91//26 121//26 122//26
f 91//27 122//27 92//27
f 92//27 122//27 123//27
f 92//28 123//28 93//28
f 93//28 123//28 124//28
f 93//29 124//29 94//29
f 94//29 124//29 125//29
f 94//30 125//30 95//30
f 95//30 125//30 126//30
f 95//31 126//31 96//31
f 96//31 126//31 127//31
f 96//32 127//32 97//32
f 97//32 127//32 128//32
f 97//33 128//33 84//33
f 84//33 128//33 100//33
f 11//4 129//4 12//4
f 12//4 129//4 130//4
f 12//5 130//5 13//5
f 13//5 130//5 131//5
f 13//6 131//6 14//6
f 14//6 131//6 132//6
f 14//7 132//7 15//7
f 15//7 132//7 133//7
f 15//8 133//8 16//8
f 16//8 133//8 134//8
f 16//9 134//9 17//9
f 17//9 134//9 135//9
f 17//10 135//10 18//10
f 18//10 135//10 136//10
f 18//11 136//11 19//11
f 19//11 136//11 137//11
f 19//34 137//34 20//34
f 20//34 137//34 138//34
f 20//35 138//35 21//35
f 21//36 138//36 139//36
f 21//37 139//37 22//37
f 22//37 139//37 140//37
f 22//16 140//16 23//16
f 23//16 140//16 141//16
f 23//17 141//17 24//17
f 24//17 141//17 142//17
f 24//18 142//18 25//18
f 25//18 142//18 143//18
f 25//19 143//19 26//19
f 26//19 143//19 144//19
f 26//2 144//2 27//2
f 27//2 144//2 145//2
f 27//20 145//20 28//20
f 28//20 145//20 146//20
f 28//21 146//21 33//21
f 33//21 146//21 147//21
f 33//22 147//22 35//22
f 35//22 147//22 148//22
f 35//23 148//23 37//23
f 37//23 148//23 149//23
f 37//38 149//38 39//38
f 39//38 149//38 150//38
f 39//39 150//39 41//39
f 41//40 150//40 151//40
f 41//41 151//41 43//41
f 43//41 151//41 152//41
f 43//28 152//28 46//28
f 46//28 152//28 153//28
f 46//29 153//29 48//29
f 48//29 153//29 154//29
f 48//30 154//30 50//30
f 50//30 154//30 155//30
f 50//31 155//31 52//31
f 52//31 155//31 156//31
f 52//32 156//32 54//32
f 54//32 156//32 157//32
f 54//33 157//33 11//33
f 11//33 157//33 129//33
f 57//4 158//4 56//4
f 56//4 158//4 159//4
f 56//5 159//5 55//5
f 55//5 159//5 160//5
f 55//6 160//6 53//6
f 53//6 160//6 161//6
f 53//7 161//7 51//7
f 51//7 161//7 162//7
f 51//8 162//8 49//8
f 49//8 162//8 163//8
f 49//9 163//9 47//9
f 47//9 163//9 164//9
f 47//10 164//10 45//10
f 45//10 164//10 165//10
f 45//11 165//11 44//11
f 44//11 165//11 166//11
f 44//34 166//34 42//34
f 42//34 166//34 167//34
f 42//35 167//35 40//35
f 40//36 167//36 168//36
f 40//37 168//37 38//37
f 38//37 168//37 169//37
f 38//16 169//16 36//16
f 36//16 169//16 170//16
f 36//17 170//17 34//17
f 34//17 170//17 171//17
f 34//18 171//18 29//18
f 29//18 171//18 172//18
f 29//19 172//19 30//19
f 30//19 172//19 173//19
f 30//2 173//2 31//2
f 31//2 173//2 174//2
f 31//20 174//20 32//20
f 32//20 174//20 175//20
f 32//21 175//21 60//21
f 60//21 175//21 176//21
f 60//22 176//22 66//22
f 66//22 176//22 177//22
f 66//23 177//23 67//23
f 67//23 177//23 178//23
f 67//24 178//24 69//24
f 69//25 178//25 179//25
f 69//26 179//26 71//26
f 71//26 179//26 180//26
f 71//27 180//27 73//27
f 73//27 180//27 181//27
f 73//28 181//28 76//28
f 76//28 181//28 182//28
f 76//29 182//29 78//29
f 78//29 182//29 183//29
f 78//30 183//30 80//30
f 80//30 183//30 184//30
f 80//31 184//31 81//31
f 81//31 184//31 185//31
f 81//32 185//32 83//32
f 83//32 185//32 186//32
f 83//33 186//33 57//33
f 57//33 186//33 158//33
f 4//42 10//42 5//42
f 5//42 10//42 8//42
f 102//43 101//43 9//43
f 9//43 101//43 100//43
f 3//43 117//43 116//43
f 3//43 116//43 115//43
f 115//43 114//43 3//43
f 3//43 114//43 175//43
f 3//43 175//43 174//43
f 114//43 113//43 175//43
f 175//43 113//43 176//43
f 176//43 113//43 112//43
f 176//43 112//43 177//43
f 177//43 112//43 178//43
f 178//43 112//43 111//43
f 178//43 111//43 179//43
f 179//43 111//43 110//43
f 179//43 110//43 180//43
f 180//43 110//43 109//43
f 180//43 109//43 181//43
f 181//43 109//43 108//43
f 181//43 108//43 107//43
f 181//43 107//43 182//43
f 182//43 107//43 106//43
f 182//43 106//43 183//43
f 183//43 106//43 105//43
f 183//43 105//43 184//43
f 184//43 105//43 104//43
f 184//43 104//43 185//43
f 185//43 104//43 186//43
f 186//43 104//43 103//43
f 186//43 103//43 9//43
f 9//43 103//43 102//43
f 131//43 130//43 10//43
f 10//43 130//43 129//43
f 10//43 129//43 160//43
f 160//43 129//43 161//43
f 161//43 129//43 157//43
f 161//43 157//43 162//43
f 162//43 157//43 156//43
f 162//43 156//43 163//43
f 163//43 156//43 155//43
f 163//43 155//43 164//43
f 164//43 155//43 154//43
f 164//43 154//43 165//43
f 165//43 154//43 153//43
f 165//43 153//43 166//43
f 166//43 153//43 152//43
f 166//43 152//43 167//43
f 167//43 152//43 151//43
f 167//43 151//43 168//43
f 168//43 151//43 150//43
f 168//43 150//43 169//43
f 169//43 150//43 149//43
f 169//43 149//43 170//43
f 170//43 149//43 148//43
f 170//43 148//43 171//43
f 171//43 148//43 147//43
f 171//43 147//43 172//43
f 172//43 147//43 146//43
f 172//43 146//43 4//43
f 4//43 146//43 145//43
f 4//43 145//43 144//43
f 144//43 143//43 4//43
f 4//43 143//43 142//43
f 4//43 142//43 141//43
f 141//43 140//43 4//43
f 4//43 140//43 139//43
f 4//43 139//43 138//43
f 138//43 137//43 4//43
f 4//43 137//43 10//43
f 10//43 137//43 136//43
f 10//43 136//43 135//43
f 135//43 134//43 10//43
f 10//43 134//43 133//43
f 10//43 133//43 132//43
f 132//43 131//43 10//43
f 158//43 9//43 159//43
f 159//43 9//43 10//43
f 159//43 10//43 160//43
f 158//43 186//43 9//43
f 174//43 173//43 3//43
f 3//43 173//43 4//43
f 4//43 173//43 172//43
f 99//1 3//1 2//1 1//1
f 7//2 6//2 9//2 98//2
f 1//44 7//44 98//44 99//44
f 128//43 127//43 126//43 125//43 124//43 123//43 122//43 121//43 120//43 119//43 118//43 117//43 3//43 99//43 98//43 9//43 100//43
o Cube
v -20.000000 0.000000 20.000000
v -20.000000 40.000000 20.000000
v -20.000000 0.000000 -20.000000
v -20.000000 40.000000 -20.000000
v 20.000000 0.000000 20.000000
v 20.000000 40.000000 20.000000
v 20.000000 0.000000 -20.000000
v 20.000000 40.000000 -20.000000
vn -1.0000 -0.0000 -0.0000
vn -0.0000 -0.0000 -1.0000
vn 1.0000 -0.0000 -0.0000
vn -0.0000 -0.0000 1.0000
vn -0.0000 -1.0000 -0.0000
vn -0.0000 1.0000 -0.0000
vt 0.375000 0.000000
vt 0.375000 1.000000
vt 0.125000 0.750000
vt 0.625000 0.000000
vt 0.625000 1.000000
vt 0.875000 0.750000
vt 0.375000 0.250000
vt 0.125000 0.500000
vt 0.625000 0.250000
vt 0.875000 0.500000
vt 0.375000 0.750000
vt 0.625000 0.750000
vt 0.375000 0.500000
vt 0.625000 0.500000
s 0
f 187/1/45 188/4/45 190/9/45 189/7/45
f 189/7/46 190/9/46 194/14/46 193/13/46
f 193/13/47 194/14/47 192/12/47 191/11/47
f 191/11/48 192/12/48 188/5/48 187/2/48
f 189/8/49 193/13/49 191/11/49 187/3/49
f 194/14/50 190/10/50 188/6/50 192/12/50
